<mxfile host="app.diagrams.net" modified="2023-05-25T20:25:19.817Z" agent="Mozilla/5.0 (Windows NT 10.0; Win64; x64) AppleWebKit/537.36 (KHTML, like Gecko) Chrome/113.0.0.0 Safari/537.36" etag="ThId-PMLR5MWt7YBRyJe" version="21.3.4" type="device" pages="2">
  <diagram name="MapaSite" id="2c0d36ab-eaac-3732-788b-9136903baeff">
    <mxGraphModel dx="1817" dy="1048" grid="1" gridSize="10" guides="1" tooltips="1" connect="1" arrows="1" fold="1" page="1" pageScale="1.5" pageWidth="1169" pageHeight="827" background="none" math="0" shadow="0">
      <root>
        <mxCell id="0" />
        <mxCell id="1" parent="0" />
        <mxCell id="123" value="" style="fillColor=#b1ddf0;strokeColor=#10739e;opacity=30;" parent="1" vertex="1">
          <mxGeometry x="776" y="175.50000000000003" width="210" height="99.99999999999994" as="geometry" />
        </mxCell>
        <mxCell id="122" value="" style="fillColor=#f5f5f5;strokeColor=#666666;opacity=30;gradientColor=#b3b3b3;" parent="1" vertex="1">
          <mxGeometry x="97" y="325.5" width="1553" height="100" as="geometry" />
        </mxCell>
        <mxCell id="119" value="" style="fillColor=#f5f5f5;strokeColor=#666666;opacity=30;gradientColor=#b3b3b3;" parent="1" vertex="1">
          <mxGeometry x="752" y="780.5" width="150" height="270" as="geometry" />
        </mxCell>
        <mxCell id="113" value="" style="fillColor=#d5e8d4;strokeColor=#82b366;opacity=30;" parent="1" vertex="1">
          <mxGeometry x="553" y="790.5" width="179" height="80" as="geometry" />
        </mxCell>
        <mxCell id="2" value="Inicio" style="rounded=1;fillColor=#7cdfcf;gradientColor=none;strokeColor=none;fontColor=#1f1e1e;fontStyle=1;fontFamily=Tahoma;fontSize=14" parent="1" vertex="1">
          <mxGeometry x="786" y="185.5" width="190" height="80" as="geometry" />
        </mxCell>
        <mxCell id="4" value="Contactos" style="rounded=1;fillColor=#7cdfcf;gradientColor=none;strokeColor=none;fontColor=#1f1e1e;fontStyle=1;fontFamily=Tahoma;fontSize=14" parent="1" vertex="1">
          <mxGeometry x="1444.9999999999998" y="335.5" width="190" height="80" as="geometry" />
        </mxCell>
        <mxCell id="9" value="" style="edgeStyle=elbowEdgeStyle;elbow=vertical;strokeWidth=2;rounded=0" parent="1" source="2" target="4" edge="1">
          <mxGeometry x="337" y="215.5" width="100" height="100" as="geometry">
            <mxPoint x="337" y="315.5" as="sourcePoint" />
            <mxPoint x="437" y="215.5" as="targetPoint" />
          </mxGeometry>
        </mxCell>
        <mxCell id="10" value="Experiência Profissional" style="rounded=1;fillColor=#7cdfcf;gradientColor=none;strokeColor=none;fontColor=#1f1e1e;fontStyle=1;fontFamily=Tahoma;fontSize=14" parent="1" vertex="1">
          <mxGeometry x="831" y="335.5" width="190" height="80" as="geometry" />
        </mxCell>
        <mxCell id="KZ41eke--BeIp-dUAKTH-129" style="edgeStyle=orthogonalEdgeStyle;rounded=0;orthogonalLoop=1;jettySize=auto;html=1;exitX=0.5;exitY=1;exitDx=0;exitDy=0;entryX=0;entryY=0.5;entryDx=0;entryDy=0;strokeColor=#000000;" parent="1" source="12" target="29" edge="1">
          <mxGeometry relative="1" as="geometry" />
        </mxCell>
        <mxCell id="KZ41eke--BeIp-dUAKTH-130" style="edgeStyle=orthogonalEdgeStyle;rounded=0;orthogonalLoop=1;jettySize=auto;html=1;exitX=0.5;exitY=1;exitDx=0;exitDy=0;entryX=0;entryY=0.5;entryDx=0;entryDy=0;strokeColor=#000000;strokeWidth=3;" parent="1" source="12" target="KZ41eke--BeIp-dUAKTH-128" edge="1">
          <mxGeometry relative="1" as="geometry" />
        </mxCell>
        <mxCell id="12" value="Educação" style="rounded=1;fillColor=#7cdfcf;gradientColor=none;strokeColor=none;fontColor=#1f1e1e;fontStyle=1;fontFamily=Tahoma;fontSize=14" parent="1" vertex="1">
          <mxGeometry x="453.9999999999999" y="335.5" width="190" height="80" as="geometry" />
        </mxCell>
        <mxCell id="13" value="Home" style="rounded=1;fillColor=#7cdfcf;gradientColor=none;strokeColor=none;fontColor=#1f1e1e;fontStyle=1;fontFamily=Tahoma;fontSize=14" parent="1" vertex="1">
          <mxGeometry x="107" y="335.5" width="190" height="80" as="geometry" />
        </mxCell>
        <mxCell id="29" value="Percurso&#xa; Académico" style="rounded=1;fillColor=#0DFFCF;gradientColor=none;strokeColor=none;fontColor=#585a5a;fontStyle=1;fontFamily=Tahoma;fontSize=14" parent="1" vertex="1">
          <mxGeometry x="587" y="455.5" width="130" height="60" as="geometry" />
        </mxCell>
        <mxCell id="30" value="Licenciatura" style="rounded=1;fillColor=#0DFFCF;gradientColor=none;strokeColor=none;fontColor=#585a5a;fontStyle=1;fontFamily=Tahoma;fontSize=14" parent="1" vertex="1">
          <mxGeometry x="587" y="545.5" width="130" height="60" as="geometry" />
        </mxCell>
        <mxCell id="31" value="Projectos &#xa;Desenvolvidos" style="rounded=1;fillColor=#0DFFCF;gradientColor=none;strokeColor=none;fontColor=#585a5a;fontStyle=1;fontFamily=Tahoma;fontSize=14" parent="1" vertex="1">
          <mxGeometry x="587" y="635.5" width="130" height="60" as="geometry" />
        </mxCell>
        <mxCell id="32" value="Laboratórios &#xa;Realizados" style="rounded=1;fillColor=#0DFFCF;gradientColor=none;strokeColor=none;fontColor=#585a5a;fontStyle=1;fontFamily=Tahoma;fontSize=14" parent="1" vertex="1">
          <mxGeometry x="587" y="800.5" width="130" height="60" as="geometry" />
        </mxCell>
        <mxCell id="36" value="Lab 2" style="rounded=1;fillColor=#a1ede4;gradientColor=none;strokeColor=none;fontColor=#0e0c0c;fontStyle=1;fontFamily=Tahoma;fontSize=14" parent="1" vertex="1">
          <mxGeometry x="762" y="800.5" width="130" height="60" as="geometry" />
        </mxCell>
        <mxCell id="37" value="Lab 3" style="rounded=1;fillColor=#a1ede4;gradientColor=none;strokeColor=none;fontColor=#0e0c0c;fontStyle=1;fontFamily=Tahoma;fontSize=14" parent="1" vertex="1">
          <mxGeometry x="762" y="890.5" width="130" height="60" as="geometry" />
        </mxCell>
        <mxCell id="38" value="Lab 4" style="rounded=1;fillColor=#a1ede4;gradientColor=none;strokeColor=none;fontColor=#0e0c0c;fontStyle=1;fontFamily=Tahoma;fontSize=14" parent="1" vertex="1">
          <mxGeometry x="762" y="980.5" width="130" height="60" as="geometry" />
        </mxCell>
        <mxCell id="59" value="" style="edgeStyle=elbowEdgeStyle;elbow=vertical;strokeWidth=2;rounded=0" parent="1" source="2" target="12" edge="1">
          <mxGeometry x="347" y="225.5" width="100" height="100" as="geometry">
            <mxPoint x="861.9999999999999" y="275.5" as="sourcePoint" />
            <mxPoint x="1466.9999999999998" y="345.5" as="targetPoint" />
          </mxGeometry>
        </mxCell>
        <mxCell id="61" value="" style="edgeStyle=elbowEdgeStyle;elbow=vertical;strokeWidth=2;rounded=0" parent="1" source="2" target="13" edge="1">
          <mxGeometry x="-23" y="135.5" width="100" height="100" as="geometry">
            <mxPoint x="-23" y="235.5" as="sourcePoint" />
            <mxPoint x="77" y="135.5" as="targetPoint" />
          </mxGeometry>
        </mxCell>
        <mxCell id="73" value="" style="edgeStyle=elbowEdgeStyle;elbow=horizontal;strokeWidth=2;rounded=0" parent="1" source="29" target="30" edge="1">
          <mxGeometry x="-28" y="135.5" width="100" height="100" as="geometry">
            <mxPoint x="-28" y="235.5" as="sourcePoint" />
            <mxPoint x="72" y="135.5" as="targetPoint" />
            <Array as="points">
              <mxPoint x="550" y="530" />
            </Array>
          </mxGeometry>
        </mxCell>
        <mxCell id="74" value="" style="edgeStyle=elbowEdgeStyle;elbow=horizontal;strokeWidth=2;rounded=0" parent="1" source="29" target="31" edge="1">
          <mxGeometry x="-28" y="135.5" width="100" height="100" as="geometry">
            <mxPoint x="-28" y="235.5" as="sourcePoint" />
            <mxPoint x="72" y="135.5" as="targetPoint" />
            <Array as="points">
              <mxPoint x="550" y="630" />
              <mxPoint x="562" y="575.5" />
            </Array>
          </mxGeometry>
        </mxCell>
        <mxCell id="75" value="" style="edgeStyle=elbowEdgeStyle;elbow=horizontal;strokeWidth=3;rounded=0" parent="1" source="29" target="32" edge="1">
          <mxGeometry x="-28" y="135.5" width="100" height="100" as="geometry">
            <mxPoint x="-28" y="235.5" as="sourcePoint" />
            <mxPoint x="72" y="135.5" as="targetPoint" />
            <Array as="points">
              <mxPoint x="550" y="540" />
              <mxPoint x="562" y="615.5" />
            </Array>
          </mxGeometry>
        </mxCell>
        <mxCell id="79" value="" style="edgeStyle=elbowEdgeStyle;elbow=horizontal;strokeWidth=2;rounded=0;exitX=1.004;exitY=0.419;exitDx=0;exitDy=0;exitPerimeter=0;" parent="1" source="113" target="37" edge="1">
          <mxGeometry x="-28" y="210.5" width="100" height="100" as="geometry">
            <mxPoint x="762" y="560.5" as="sourcePoint" />
            <mxPoint x="72" y="210.5" as="targetPoint" />
            <Array as="points">
              <mxPoint x="743" y="845" />
              <mxPoint x="742" y="740.5" />
            </Array>
          </mxGeometry>
        </mxCell>
        <mxCell id="80" value="" style="edgeStyle=elbowEdgeStyle;elbow=horizontal;strokeWidth=2;rounded=0" parent="1" target="38" edge="1">
          <mxGeometry x="-28" y="210.5" width="100" height="100" as="geometry">
            <mxPoint x="713" y="825" as="sourcePoint" />
            <mxPoint x="72" y="210.5" as="targetPoint" />
            <Array as="points">
              <mxPoint x="743" y="825" />
              <mxPoint x="743" y="935" />
              <mxPoint x="733" y="825" />
              <mxPoint x="742" y="780.5" />
            </Array>
          </mxGeometry>
        </mxCell>
        <mxCell id="KZ41eke--BeIp-dUAKTH-123" value="Experiência Você Mesmo!" style="rounded=1;fillColor=#7cdfcf;gradientColor=none;strokeColor=none;fontColor=#1f1e1e;fontStyle=1;fontFamily=Tahoma;fontSize=14" parent="1" vertex="1">
          <mxGeometry x="1150" y="335.5" width="190" height="80" as="geometry" />
        </mxCell>
        <mxCell id="KZ41eke--BeIp-dUAKTH-124" value="" style="edgeStyle=elbowEdgeStyle;elbow=horizontal;strokeWidth=2;rounded=0;" parent="1" edge="1">
          <mxGeometry x="-18" y="220.5" width="100" height="100" as="geometry">
            <mxPoint x="713" y="825" as="sourcePoint" />
            <mxPoint x="763" y="825" as="targetPoint" />
            <Array as="points">
              <mxPoint x="753" y="855" />
              <mxPoint x="752" y="750.5" />
            </Array>
          </mxGeometry>
        </mxCell>
        <mxCell id="KZ41eke--BeIp-dUAKTH-125" value="" style="edgeStyle=elbowEdgeStyle;elbow=vertical;strokeWidth=2;rounded=0;entryX=0.5;entryY=0;entryDx=0;entryDy=0;exitX=0.5;exitY=1;exitDx=0;exitDy=0;" parent="1" source="2" target="10" edge="1">
          <mxGeometry x="357" y="235.5" width="100" height="100" as="geometry">
            <mxPoint x="880" y="270" as="sourcePoint" />
            <mxPoint x="559" y="346" as="targetPoint" />
            <Array as="points">
              <mxPoint x="910" y="300" />
            </Array>
          </mxGeometry>
        </mxCell>
        <mxCell id="KZ41eke--BeIp-dUAKTH-127" value="" style="edgeStyle=elbowEdgeStyle;elbow=vertical;strokeWidth=2;rounded=0;entryX=0.5;entryY=0;entryDx=0;entryDy=0;exitX=0.5;exitY=1;exitDx=0;exitDy=0;" parent="1" source="2" target="KZ41eke--BeIp-dUAKTH-123" edge="1">
          <mxGeometry x="367" y="245.5" width="100" height="100" as="geometry">
            <mxPoint x="891" y="276" as="sourcePoint" />
            <mxPoint x="936" y="346" as="targetPoint" />
            <Array as="points">
              <mxPoint x="1060" y="300" />
            </Array>
          </mxGeometry>
        </mxCell>
        <mxCell id="KZ41eke--BeIp-dUAKTH-128" value="Projectos &#xa;Desenvolvidos" style="rounded=1;fillColor=#0DFFCF;gradientColor=none;strokeColor=none;fontColor=#585a5a;fontStyle=1;fontFamily=Tahoma;fontSize=14" parent="1" vertex="1">
          <mxGeometry x="587" y="720" width="130" height="60" as="geometry" />
        </mxCell>
      </root>
    </mxGraphModel>
  </diagram>
  <diagram id="dIrYsTPNSBrKVpKpyQ_M" name="EstruturaBlog">
    <mxGraphModel dx="1717" dy="1048" grid="1" gridSize="10" guides="1" tooltips="1" connect="1" arrows="1" fold="1" page="1" pageScale="1" pageWidth="827" pageHeight="1169" math="0" shadow="0">
      <root>
        <mxCell id="0" />
        <mxCell id="1" parent="0" />
        <mxCell id="UxA994h7YaKG0W9MO8Dd-18" value="Conta" style="swimlane;fontStyle=0;childLayout=stackLayout;horizontal=1;startSize=26;horizontalStack=0;resizeParent=1;resizeParentMax=0;resizeLast=0;collapsible=1;marginBottom=0;align=center;fontSize=14;" vertex="1" parent="1">
          <mxGeometry x="300" y="60" width="160" height="86" as="geometry" />
        </mxCell>
        <mxCell id="UxA994h7YaKG0W9MO8Dd-19" value="nome&lt;br&gt;GitHub" style="text;strokeColor=none;fillColor=none;spacingLeft=4;spacingRight=4;overflow=hidden;rotatable=0;points=[[0,0.5],[1,0.5]];portConstraint=eastwest;fontSize=12;whiteSpace=wrap;html=1;" vertex="1" parent="UxA994h7YaKG0W9MO8Dd-18">
          <mxGeometry y="26" width="160" height="30" as="geometry" />
        </mxCell>
        <mxCell id="UxA994h7YaKG0W9MO8Dd-20" value="PythonAnywhere&lt;br&gt;" style="text;strokeColor=none;fillColor=none;spacingLeft=4;spacingRight=4;overflow=hidden;rotatable=0;points=[[0,0.5],[1,0.5]];portConstraint=eastwest;fontSize=12;whiteSpace=wrap;html=1;" vertex="1" parent="UxA994h7YaKG0W9MO8Dd-18">
          <mxGeometry y="56" width="160" height="30" as="geometry" />
        </mxCell>
        <mxCell id="UxA994h7YaKG0W9MO8Dd-22" value="" style="edgeStyle=entityRelationEdgeStyle;fontSize=12;html=1;endArrow=ERmandOne;startArrow=ERmandOne;rounded=0;" edge="1" parent="1">
          <mxGeometry width="100" height="100" relative="1" as="geometry">
            <mxPoint x="190" y="70" as="sourcePoint" />
            <mxPoint x="300" y="70" as="targetPoint" />
          </mxGeometry>
        </mxCell>
        <mxCell id="UxA994h7YaKG0W9MO8Dd-23" value="Área" style="swimlane;fontStyle=0;childLayout=stackLayout;horizontal=1;startSize=26;horizontalStack=0;resizeParent=1;resizeParentMax=0;resizeLast=0;collapsible=1;marginBottom=0;align=center;fontSize=14;" vertex="1" parent="1">
          <mxGeometry x="30" y="256" width="160" height="90" as="geometry" />
        </mxCell>
        <mxCell id="UxA994h7YaKG0W9MO8Dd-24" value="nome&lt;br&gt;blog&lt;br&gt;" style="text;strokeColor=none;fillColor=none;spacingLeft=4;spacingRight=4;overflow=hidden;rotatable=0;points=[[0,0.5],[1,0.5]];portConstraint=eastwest;fontSize=12;whiteSpace=wrap;html=1;" vertex="1" parent="UxA994h7YaKG0W9MO8Dd-23">
          <mxGeometry y="26" width="160" height="64" as="geometry" />
        </mxCell>
        <mxCell id="UxA994h7YaKG0W9MO8Dd-27" value="" style="fontSize=12;html=1;endArrow=ERoneToMany;rounded=0;" edge="1" parent="1" target="UxA994h7YaKG0W9MO8Dd-23">
          <mxGeometry width="100" height="100" relative="1" as="geometry">
            <mxPoint x="110" y="120" as="sourcePoint" />
            <mxPoint x="130" y="270" as="targetPoint" />
          </mxGeometry>
        </mxCell>
        <mxCell id="UxA994h7YaKG0W9MO8Dd-28" value="Blog" style="swimlane;fontStyle=0;childLayout=stackLayout;horizontal=1;startSize=26;horizontalStack=0;resizeParent=1;resizeParentMax=0;resizeLast=0;collapsible=1;marginBottom=0;align=center;fontSize=14;" vertex="1" parent="1">
          <mxGeometry x="40" y="60" width="160" height="56" as="geometry" />
        </mxCell>
        <mxCell id="UxA994h7YaKG0W9MO8Dd-29" value="nome" style="text;strokeColor=none;fillColor=none;spacingLeft=4;spacingRight=4;overflow=hidden;rotatable=0;points=[[0,0.5],[1,0.5]];portConstraint=eastwest;fontSize=12;whiteSpace=wrap;html=1;" vertex="1" parent="UxA994h7YaKG0W9MO8Dd-28">
          <mxGeometry y="26" width="160" height="30" as="geometry" />
        </mxCell>
        <mxCell id="UxA994h7YaKG0W9MO8Dd-32" value="Artigo" style="swimlane;fontStyle=0;childLayout=stackLayout;horizontal=1;startSize=26;horizontalStack=0;resizeParent=1;resizeParentMax=0;resizeLast=0;collapsible=1;marginBottom=0;align=center;fontSize=14;" vertex="1" parent="1">
          <mxGeometry x="310" y="200" width="160" height="160" as="geometry" />
        </mxCell>
        <mxCell id="UxA994h7YaKG0W9MO8Dd-38" value="titulo&lt;br&gt;data_criacao&lt;br&gt;autor&lt;br&gt;area&lt;br&gt;texto&lt;br&gt;imagem&lt;br&gt;link&lt;br&gt;comentario&lt;br&gt;likes&lt;br&gt;&lt;br&gt;" style="text;strokeColor=none;fillColor=none;spacingLeft=4;spacingRight=4;overflow=hidden;rotatable=0;points=[[0,0.5],[1,0.5]];portConstraint=eastwest;fontSize=12;whiteSpace=wrap;html=1;" vertex="1" parent="UxA994h7YaKG0W9MO8Dd-32">
          <mxGeometry y="26" width="160" height="134" as="geometry" />
        </mxCell>
        <mxCell id="UxA994h7YaKG0W9MO8Dd-36" value="" style="edgeStyle=entityRelationEdgeStyle;fontSize=12;html=1;endArrow=ERmandOne;rounded=0;entryX=0;entryY=0.5;entryDx=0;entryDy=0;exitX=1.014;exitY=0.017;exitDx=0;exitDy=0;exitPerimeter=0;" edge="1" parent="1" source="UxA994h7YaKG0W9MO8Dd-24" target="UxA994h7YaKG0W9MO8Dd-32">
          <mxGeometry width="100" height="100" relative="1" as="geometry">
            <mxPoint x="180" y="310" as="sourcePoint" />
            <mxPoint x="280" y="210" as="targetPoint" />
          </mxGeometry>
        </mxCell>
        <mxCell id="UxA994h7YaKG0W9MO8Dd-39" value="Autor" style="swimlane;fontStyle=0;childLayout=stackLayout;horizontal=1;startSize=26;horizontalStack=0;resizeParent=1;resizeParentMax=0;resizeLast=0;collapsible=1;marginBottom=0;align=center;fontSize=14;" vertex="1" parent="1">
          <mxGeometry x="170" y="444" width="160" height="100" as="geometry" />
        </mxCell>
        <mxCell id="UxA994h7YaKG0W9MO8Dd-40" value="nome&lt;br&gt;area_interesse" style="text;strokeColor=none;fillColor=none;spacingLeft=4;spacingRight=4;overflow=hidden;rotatable=0;points=[[0,0.5],[1,0.5]];portConstraint=eastwest;fontSize=12;whiteSpace=wrap;html=1;" vertex="1" parent="UxA994h7YaKG0W9MO8Dd-39">
          <mxGeometry y="26" width="160" height="74" as="geometry" />
        </mxCell>
        <mxCell id="UxA994h7YaKG0W9MO8Dd-43" value="" style="fontSize=12;html=1;endArrow=ERmany;startArrow=ERmany;rounded=0;entryX=1;entryY=0.5;entryDx=0;entryDy=0;exitX=0.491;exitY=1.011;exitDx=0;exitDy=0;exitPerimeter=0;" edge="1" parent="1" source="UxA994h7YaKG0W9MO8Dd-38" target="UxA994h7YaKG0W9MO8Dd-40">
          <mxGeometry width="100" height="100" relative="1" as="geometry">
            <mxPoint x="310" y="580" as="sourcePoint" />
            <mxPoint x="410" y="480" as="targetPoint" />
            <Array as="points">
              <mxPoint x="390" y="510" />
            </Array>
          </mxGeometry>
        </mxCell>
        <mxCell id="UxA994h7YaKG0W9MO8Dd-44" value="" style="fontSize=12;html=1;endArrow=ERmany;startArrow=ERmany;rounded=0;entryX=-0.033;entryY=0.277;entryDx=0;entryDy=0;entryPerimeter=0;exitX=0.6;exitY=1.024;exitDx=0;exitDy=0;exitPerimeter=0;" edge="1" parent="1" source="UxA994h7YaKG0W9MO8Dd-24" target="UxA994h7YaKG0W9MO8Dd-40">
          <mxGeometry width="100" height="100" relative="1" as="geometry">
            <mxPoint x="100" y="370" as="sourcePoint" />
            <mxPoint x="570" y="580" as="targetPoint" />
            <Array as="points">
              <mxPoint x="130" y="490" />
            </Array>
          </mxGeometry>
        </mxCell>
        <mxCell id="UxA994h7YaKG0W9MO8Dd-45" value="Comentario" style="swimlane;fontStyle=0;childLayout=stackLayout;horizontal=1;startSize=26;horizontalStack=0;resizeParent=1;resizeParentMax=0;resizeLast=0;collapsible=1;marginBottom=0;align=center;fontSize=14;" vertex="1" parent="1">
          <mxGeometry x="580" y="200" width="160" height="116" as="geometry" />
        </mxCell>
        <mxCell id="UxA994h7YaKG0W9MO8Dd-46" value="titulo" style="text;strokeColor=none;fillColor=none;spacingLeft=4;spacingRight=4;overflow=hidden;rotatable=0;points=[[0,0.5],[1,0.5]];portConstraint=eastwest;fontSize=12;whiteSpace=wrap;html=1;" vertex="1" parent="UxA994h7YaKG0W9MO8Dd-45">
          <mxGeometry y="26" width="160" height="30" as="geometry" />
        </mxCell>
        <mxCell id="UxA994h7YaKG0W9MO8Dd-47" value="texto" style="text;strokeColor=none;fillColor=none;spacingLeft=4;spacingRight=4;overflow=hidden;rotatable=0;points=[[0,0.5],[1,0.5]];portConstraint=eastwest;fontSize=12;whiteSpace=wrap;html=1;" vertex="1" parent="UxA994h7YaKG0W9MO8Dd-45">
          <mxGeometry y="56" width="160" height="30" as="geometry" />
        </mxCell>
        <mxCell id="UxA994h7YaKG0W9MO8Dd-48" value="data_criacao" style="text;strokeColor=none;fillColor=none;spacingLeft=4;spacingRight=4;overflow=hidden;rotatable=0;points=[[0,0.5],[1,0.5]];portConstraint=eastwest;fontSize=12;whiteSpace=wrap;html=1;" vertex="1" parent="UxA994h7YaKG0W9MO8Dd-45">
          <mxGeometry y="86" width="160" height="30" as="geometry" />
        </mxCell>
        <mxCell id="UxA994h7YaKG0W9MO8Dd-49" value="" style="edgeStyle=entityRelationEdgeStyle;fontSize=12;html=1;endArrow=ERmany;startArrow=ERmany;rounded=0;" edge="1" parent="1">
          <mxGeometry width="100" height="100" relative="1" as="geometry">
            <mxPoint x="470" y="260" as="sourcePoint" />
            <mxPoint x="580" y="260" as="targetPoint" />
          </mxGeometry>
        </mxCell>
      </root>
    </mxGraphModel>
  </diagram>
</mxfile>
